<svg width="99" height="96" viewBox="0 0 99 96" fill="none" xmlns="http://www.w3.org/2000/svg">
<path d="M97.5 48.4753C97.5 73.837 76.0678 94.5 49.5 94.5C22.9322 94.5 1.5 73.837 1.5 48.4753C1.5 23.1135 22.9322 2.4505 49.5 2.4505C76.0678 2.4505 97.5 23.1135 97.5 48.4753Z" stroke="#EEC643" stroke-width="3"/>
<path d="M72.0326 25.845H58.2076L52.8876 69H43.8576L49.1076 25.845H35.2126L36.1226 18.39H72.9776L72.0326 25.845Z" fill="#EEC643"/>
<path d="M76.4755 29.7959L51.4505 80.4059H43.2255L30.6255 29.7959H37.9405C38.7338 29.7959 39.3522 29.9943 39.7955 30.3909C40.2622 30.7643 40.5538 31.2543 40.6705 31.8609L47.4605 63.3959C47.7172 64.3759 47.9505 65.4493 48.1605 66.6159C48.3705 67.7593 48.5572 68.9609 48.7205 70.2209C49.1172 68.9609 49.5488 67.7593 50.0155 66.6159C50.4822 65.4493 50.9605 64.3759 51.4505 63.3959L65.8705 31.8609C66.1038 31.3476 66.5122 30.8809 67.0955 30.4609C67.7022 30.0176 68.3788 29.7959 69.1255 29.7959H76.4755Z" fill="#EEC643"/>
</svg>
