<?xml version="1.0" standalone="no"?><svg xmlns="http://www.w3.org/2000/svg" viewBox="0 0 1440 320"><path fill="#6daedb" fill-opacity="1" d="M0,64L16,69.3C32,75,64,85,96,90.7C128,96,160,96,192,90.7C224,85,256,75,288,64C320,53,352,43,384,58.7C416,75,448,117,480,154.7C512,192,544,224,576,218.7C608,213,640,171,672,154.7C704,139,736,149,768,133.3C800,117,832,75,864,58.7C896,43,928,53,960,74.7C992,96,1024,128,1056,160C1088,192,1120,224,1152,208C1184,192,1216,128,1248,101.3C1280,75,1312,85,1344,122.7C1376,160,1408,224,1424,256L1440,288L1440,320L1424,320C1408,320,1376,320,1344,320C1312,320,1280,320,1248,320C1216,320,1184,320,1152,320C1120,320,1088,320,1056,320C1024,320,992,320,960,320C928,320,896,320,864,320C832,320,800,320,768,320C736,320,704,320,672,320C640,320,608,320,576,320C544,320,512,320,480,320C448,320,416,320,384,320C352,320,320,320,288,320C256,320,224,320,192,320C160,320,128,320,96,320C64,320,32,320,16,320L0,320Z"></path></svg>