<?xml version="1.0" standalone="no"?><svg xmlns="http://www.w3.org/2000/svg" viewBox="0 0 1440 320"><path fill="#6daedb" fill-opacity="0.5" d="M0,64L10.9,96C21.8,128,44,192,65,192C87.3,192,109,128,131,96C152.7,64,175,64,196,96C218.2,128,240,192,262,213.3C283.6,235,305,213,327,197.3C349.1,181,371,171,393,192C414.5,213,436,267,458,277.3C480,288,502,256,524,213.3C545.5,171,567,117,589,101.3C610.9,85,633,107,655,117.3C676.4,128,698,128,720,128C741.8,128,764,128,785,138.7C807.3,149,829,171,851,197.3C872.7,224,895,256,916,250.7C938.2,245,960,203,982,160C1003.6,117,1025,75,1047,85.3C1069.1,96,1091,160,1113,170.7C1134.5,181,1156,139,1178,106.7C1200,75,1222,53,1244,69.3C1265.5,85,1287,139,1309,154.7C1330.9,171,1353,149,1375,165.3C1396.4,181,1418,235,1429,261.3L1440,288L1440,320L1429.1,320C1418.2,320,1396,320,1375,320C1352.7,320,1331,320,1309,320C1287.3,320,1265,320,1244,320C1221.8,320,1200,320,1178,320C1156.4,320,1135,320,1113,320C1090.9,320,1069,320,1047,320C1025.5,320,1004,320,982,320C960,320,938,320,916,320C894.5,320,873,320,851,320C829.1,320,807,320,785,320C763.6,320,742,320,720,320C698.2,320,676,320,655,320C632.7,320,611,320,589,320C567.3,320,545,320,524,320C501.8,320,480,320,458,320C436.4,320,415,320,393,320C370.9,320,349,320,327,320C305.5,320,284,320,262,320C240,320,218,320,196,320C174.5,320,153,320,131,320C109.1,320,87,320,65,320C43.6,320,22,320,11,320L0,320Z"></path></svg>